Patient4_TMGait_0pt6_02_left_13_EMG.mot
version=1
nRows=30
nColumns=33
inDegrees=no
endheader
time	1LAddLong	2LGlutMax	3LGlutMed	4LIliopsoas	5LSemiMemb	6LBicFemLong	7LRecFem	8LVastMed	9LVastLat	10LGasMed	11LTibAnt	12lTibPost	13LPeroneusLong	14LSol	15LExtDigLong	16LFlexDigLong	17RAddLong	18RGlutMax	19RGlutMed	20RIliopsoas	21RSemiMemb	22RBicFemLong	23RRecFem	24RVastMed	25RVastLat	26RGasMed	27RTibAnt	28RTibPost	29RPeroneusLong	30RSol	31RExtDigLong	32RFlexDigLong
16.407	0.001373	0.2536	-0.17944	0.008545	-0.044861	-0.40405	0.46783	0.022278	-0.13519	-0.080872	0.59082	0.00885	-0.026703	-0.43243	0.55206	-0.14252	-0.036316	-0.14206	0.00473	0.063782	-0.093994	-0.35706	0.69504	0.19516	0.005341	0.007629	-0.74921	-0.015869	0.096283	0.24658	0.000458	-0.012512
16.408	0.013428	0.27359	-0.089111	-0.002441	-0.045319	-0.16434	0.36514	0.02533	-0.13825	-0.09613	0.66956	0.0177	-0.011444	-0.29938	0.46081	0.097351	-0.06012	-0.14328	-0.12619	0.085602	-0.045166	-0.34607	0.70435	0.16632	-0.000763	0.005798	0.084839	-0.011444	0.01358	0.2272	0.001221	-0.02121
16.409	0.036469	0.37613	-0.005951	-0.000458	-0.036316	0.14114	0.25879	0.004425	-0.2124	-0.11368	0.18204	0.019989	-0.00412	-0.077362	0.79514	-0.089722	-0.023956	-0.16769	-0.1709	0.14984	-0.013428	-0.24292	0.70404	0.14938	0.003815	0.007782	0.31052	-0.014191	-0.074768	0.31372	-0.001831	-0.011597
16.41	0.028534	0.38467	-0.13657	-0.018311	-0.029755	0.3302	0.11505	0.004578	-0.27481	-0.083923	0.087891	0.015106	-0.025177	0.035095	0.25833	-0.37476	0.053406	-0.20981	-0.18082	0.14984	-0.010071	-0.21042	0.73196	0.094757	0.010529	0.002594	0.003967	-0.011749	-0.10956	0.37781	-0.002136	-0.021667
16.411	0.045471	0.29785	-0.21194	0.003967	0	0.3154	0.008698	0.011597	-0.27786	-0.084381	-0.16495	0.014343	-0.02243	0.13489	-0.45959	0.096436	0.10712	-0.2269	-0.12192	0.091248	-0.028839	-0.21988	0.69092	0.12131	0.023956	-0.010834	-0.55679	-0.011444	-0.21942	0.52033	-0.002289	-0.025482
16.412	0.04776	0.23605	-0.14038	0.005035	0.021515	0.37949	-0.10269	0.015411	-0.24719	-0.096283	-0.3009	0.024109	0.046997	0.11612	-0.24323	0.16708	0.039215	-0.17105	-0.049286	0.048523	-0.070953	-0.19058	0.78384	-0.081482	-0.01709	-0.017242	-0.83893	-0.010376	-0.20828	0.61783	0.000458	-0.027771
16.413	0.050354	0.27725	0.08255	-0.001831	0.031891	0.29236	-0.17166	0.018005	-0.22507	-0.11078	-0.21515	0.025635	0.082245	0.088348	0.6723	0.57922	-0.008087	-0.20157	0.061035	0.035706	-0.08728	-0.04303	0.7251	-0.14252	-0.014648	-0.020905	-0.24658	-0.010529	-0.065613	0.44571	-0.001831	-0.024109
16.414	0.042572	0.34409	0.18005	-0.007324	0.042572	0.010223	-0.24704	0.015717	-0.18509	-0.096283	-0.075073	0.023193	0.087585	0.14267	-0.51086	0.17334	0.001831	-0.24735	-0.30914	0.05127	-0.068359	0.15961	0.6839	-0.074921	0.015564	-0.007019	0.56122	-0.00351	0.078888	0.16296	-0.005341	-0.024719
16.415	0.035858	0.48294	0.036621	-0.002899	0.041351	-0.50934	-0.27924	0.015411	-0.14542	-0.053558	-0.28122	0.019836	0.068054	0.095825	-0.80627	-1.767	-0.027161	-0.20721	-0.55786	0.043335	-0.071411	0.082855	0.62424	0.021973	0.054626	0.004425	0.83588	-0.007019	0.14984	0.067444	0.000916	-0.02182
16.416	0.032806	0.51758	-0.012665	0.002594	0.026398	-0.65704	-0.32837	0.005341	-0.11017	-0.052338	-0.15045	0.021057	-0.002899	0.14221	-0.91827	-1.4726	-0.019989	-0.19775	-0.28763	0.01358	-0.045319	-0.053406	0.62882	0.12924	0.032196	0.005188	0.44342	-0.002747	0.12878	0.049744	0.006714	-0.02121
16.417	0.025024	0.58655	0.20599	-0.000763	-0.031433	-0.289	-0.32303	0.010834	-0.11765	-0.12283	-0.16968	0.023346	-0.037689	0.33814	-0.62912	2.2041	-0.016022	-0.17227	0.057526	-0.030212	-0.085297	-0.030212	0.73166	0.12329	0.016479	-0.004883	0.53757	-0.001068	-0.079803	0.098877	-0.000153	-0.021362
16.418	0.023499	0.58166	0.10239	-0.006104	-0.093689	-0.060272	-0.28656	0.012054	-0.17349	0.11887	-0.1088	0.010529	-0.10605	0.50705	-0.91354	0.23254	-0.044403	-0.13107	0.23086	-0.112	-0.11978	-0.007782	0.71716	0.14008	0.012207	-0.00946	0.46677	-0.002136	-0.12283	0.15106	0.009766	-0.021057
16.419	0.019226	0.63644	0.084534	-0.007935	-0.13153	-0.054626	-0.32669	0.015869	-0.19928	0.45792	-0.06546	0.009613	-0.03006	0.31479	-0.76431	-0.3096	-0.021515	-0.076141	-0.024567	-0.13565	-0.099487	0.079956	0.71762	0.17532	0.00946	-0.007172	0.7991	-0.003662	-0.14008	0.089874	-0.002441	-0.029297
16.42	0.023499	0.78995	0.090637	-0.003357	-0.075226	-0.037994	-0.3389	0.006714	-0.20569	0.52826	-0.041199	0.008087	0.015564	0.19699	-0.23056	0.42358	-0.002899	-0.16068	-0.47104	-0.12711	-0.079193	0.25299	0.77972	0.14557	-0.027161	-0.016174	-0.019989	-0.002594	-0.14648	-0.049286	-0.00061	-0.023956
16.421	0.029602	0.94955	0.10208	-0.00885	0.068512	0.013885	-0.37888	0.006866	-0.16708	0.49271	-0.065765	0.003662	-0.018463	-0.065002	0.051727	0.3566	-0.029907	-0.13931	-0.38834	-0.075226	-0.078278	0.3537	0.83725	0.096588	-0.013123	-0.002441	-0.45654	-0.003662	-0.18707	-0.084686	0.000458	-0.024109
16.422	0.030365	1.171	0.074158	0.012207	0.089264	0.067596	-0.3717	0.010071	-0.15625	0.48737	-0.090332	-0.039215	-0.047913	-0.34668	0.16403	1.6133	-0.054169	-0.056763	-0.49271	0.2243	-0.0737	0.42129	0.75394	0.10498	-0.009918	0.000153	0.21683	-0.003052	-0.22903	-0.11383	-0.001831	-0.024567
16.423	0.02533	1.2523	-0.018311	-0.00412	0.040588	0.099487	-0.4361	0.017242	-0.061646	0.60349	-0.036163	0.11612	-0.019379	-0.80505	0.25177	-0.58426	-0.055542	-0.054169	-0.47089	0.30731	-0.082245	0.3418	0.71228	0.085602	-0.008392	-0.001373	0.62561	0.009918	-0.25665	-0.25864	0.000763	-0.024261
16.424	0.025635	1.3741	-0.11826	-0.007019	0.019226	0.10498	-0.50262	0.025635	0.10757	0.70557	0.036469	0.1622	0.003357	-0.99533	0.40787	-0.52017	-0.068817	0.029602	-0.093842	0.1973	-0.079498	0.31342	0.70328	0.15366	0.006866	-0.003052	0.30701	-0.003357	-0.31158	-0.25803	-0.002136	-0.028381
16.425	0.023041	1.3889	-0.071716	-0.010223	0.002136	0.011444	-0.62668	0.034943	0.32211	0.12543	0.052643	-0.00885	0.10147	-0.72067	0.33066	0.65704	-0.020447	0.14923	-0.11002	0.15243	-0.095367	0.30304	0.63171	0.1532	-0.002136	0.003967	-0.10742	-0.000305	-0.069122	-0.20737	-0.002136	-0.027924
16.426	0.023804	1.254	0.002594	-0.00061	-0.009003	-0.089874	-0.57754	0.029144	0.39917	-0.12482	0.052643	0.35919	0.044556	-0.37811	0.1294	-0.1561	0.032501	0.14435	-0.081329	0.11688	-0.078735	0.28503	0.61432	0.2652	0.031738	0.023041	-0.93048	0.002747	0.30762	-0.31174	-0.001526	-0.028381
16.427	0.0177	1.1659	-0.035095	-0.021667	-0.022888	-0.041504	-0.59967	0.001984	0.28091	-0.23086	0.019989	0.010834	-0.016174	-0.008545	0.11215	0.067291	0.14542	0.25055	-0.1973	0.064392	-0.077667	0.20966	0.55832	0.25024	0.036316	0.007782	-1.4645	0.00412	0.32974	-0.11948	-0.000153	-0.033875
16.428	0.008698	1.0504	-0.067444	-0.005951	-0.023041	-0.25681	-0.47943	0.020752	0.037689	-0.44525	-0.015564	-0.098114	-0.066071	0.37964	0.19073	0.78507	0.20386	0.33127	-0.23407	0.012817	-0.092316	0.12329	0.54352	0.18448	0.021973	0.00061	-1.3676	-0.001373	0.092773	-0.09964	-0.000763	-0.031128
16.429	0.008087	0.78735	-0.1384	0.020447	-0.019226	-0.23895	-0.38864	0.018768	-0.22797	-0.50232	-0.002594	0.059967	-0.09491	0.23224	0.33997	-0.64484	0.19241	0.31082	-0.30991	-0.02655	-0.069733	0.070496	0.56564	0.19959	0.032043	-0.005188	-0.031586	-0.002441	-0.30151	-0.14191	-0.001068	-0.045776
16.43	0.01236	0.58395	-0.10468	0.014191	-0.018311	-0.090179	-0.40985	0.010834	-0.30548	-0.17334	0.002747	-0.023956	-0.088196	-0.14786	0.42191	-0.072021	0.14526	0.3772	-0.21072	0.000305	-0.079956	0.10407	0.54413	0.21255	0.04837	0.011444	0.86258	0.003204	-0.31372	-0.20477	0	-0.032654
16.431	0.000458	0.39871	-0.045166	-0.010529	-0.025177	-0.021515	-0.39017	0.000916	-0.17792	0.06134	0.11658	-0.098267	-0.027771	-0.42908	0.30792	0.56305	0.062714	0.35797	-0.17197	-0.092468	-0.033417	0.22644	0.50568	0.18692	0.06012	0.025787	1.5414	0.002594	-0.048218	-0.32455	0.002441	-0.021667
16.432	0.015411	0.21316	-0.017242	-0.006866	-0.021362	0.003662	-0.38086	-0.003815	-0.004272	-0.16495	0.17822	-0.074768	-0.080872	-0.70282	0.39871	-0.00824	0.045624	0.26291	-0.24292	-0.19257	0.017548	0.23361	0.42725	0.074158	0.056915	0.019073	1.3036	0.001831	-0.10422	-0.16769	-0.003967	-0.015411
16.433	0.010223	0.13428	-0.002747	-0.003357	-0.031128	0.086212	-0.33234	-0.005798	0.064392	-0.42221	0.13321	-0.084076	-0.04425	-0.75043	0.1683	-0.05127	-0.045319	0.26566	-0.25269	-0.14404	0.007477	0.14664	0.3331	0.09079	0.048218	0.014191	-0.36346	0.000763	0.095978	0.027008	0	-0.022736
16.434	-0.000763	0.11063	-0.008087	0.002747	-0.029449	0.23224	-0.2739	-0.026703	0.083466	-0.31647	0.10132	0.050812	0.092468	-0.47928	-0.005798	-0.90851	0.00885	0.27863	-0.008392	0.065613	0.007629	0.091553	0.36163	0.11826	0.047455	0.000763	-0.79529	0.002289	0.042419	0.29022	0.001068	-0.016479
16.435	-0.000305	0.09613	0.058289	-0.022888	-0.036774	0.31281	-0.19455	-0.025024	0.053101	-0.18463	0.14191	0.071716	0.088196	-0.28885	0.36285	0.24414	0.08606	0.37811	-0.083923	0.2327	0.038757	0.14526	0.44464	0.11688	0.057983	-0.010376	-0.93353	-0.003052	-0.009613	0.43121	0.001068	-0.016785
16.436	-0.003204	-0.016327	0.000305	-0.003052	-0.031738	0.18158	-0.19348	-0.016632	0.048218	-0.17807	0.046844	0.13626	0.103	-0.64179	0.034637	0.081482	0.20233	0.38544	-0.38818	0.53192	-0.020142	0.12222	0.47012	0.095062	0.052643	-0.00946	-0.12054	-0.002594	0.079803	0.32394	-0.00061	-0.014191
